<?xml version="1.0" standalone="no"?>
<!DOCTYPE svg PUBLIC "-//W3C//DTD SVG 20010904//EN"
 "http://www.w3.org/TR/2001/REC-SVG-20010904/DTD/svg10.dtd">
<svg version="1.0" xmlns="http://www.w3.org/2000/svg"
 width="499.000000pt" height="499.000000pt" viewBox="0 0 499.000000 499.000000"
 preserveAspectRatio="xMidYMid meet">
<metadata>
Created by potrace 1.11, written by Peter Selinger 2001-2013
</metadata>
<g transform="translate(0.000000,499.000000) scale(0.100000,-0.100000)"
fill="#000000" stroke="none">
<path d="M2306 4907 c-22 -16 -29 -52 -52 -270 -10 -98 -22 -170 -28 -172 -6
-1 -50 -10 -98 -19 -48 -9 -93 -18 -100 -21 -8 -3 -48 59 -113 176 -55 100
-110 189 -123 197 -22 14 -31 13 -130 -28 -186 -75 -231 -97 -242 -122 -9 -19
1 -62 48 -225 l58 -202 -89 -60 c-49 -34 -93 -61 -97 -61 -4 0 -80 59 -170
130 -111 88 -172 130 -189 130 -35 0 -281 -246 -281 -281 0 -17 42 -78 130
-189 71 -90 130 -166 130 -170 0 -4 -27 -47 -60 -97 l-60 -90 -205 60 c-191
55 -207 58 -229 44 -16 -11 -44 -67 -91 -179 -62 -151 -66 -165 -53 -188 9
-16 75 -59 188 -122 96 -54 178 -99 182 -100 4 -2 3 -21 -3 -43 -7 -22 -17
-71 -23 -110 l-12 -70 -50 -6 c-27 -3 -121 -14 -208 -24 -125 -14 -163 -22
-178 -37 -16 -16 -18 -37 -18 -203 0 -181 0 -185 23 -200 20 -13 464 -73 472
-63 1 2 5 24 7 49 l5 46 -141 17 c-77 9 -169 19 -204 23 l-63 6 3 126 3 126
215 24 c118 13 217 25 219 27 2 2 10 45 17 96 8 51 23 130 35 176 11 46 19 85
17 87 -1 2 -86 49 -188 105 -102 56 -188 105 -192 108 -5 5 73 211 88 230 1 2
95 -24 210 -57 114 -34 211 -61 215 -61 5 0 26 31 48 69 22 38 68 105 101 150
l60 82 -140 176 -141 177 87 87 c48 49 92 85 98 81 6 -3 86 -66 178 -140 l167
-133 74 55 c41 30 109 76 151 101 42 26 76 49 76 51 0 3 -27 100 -60 216 -34
116 -60 211 -58 213 2 1 54 23 115 48 l113 46 54 -97 c29 -53 77 -140 106
-192 29 -52 54 -97 56 -99 1 -1 51 8 111 22 59 14 131 29 158 32 101 12 89
-12 115 235 l24 220 126 0 126 0 24 -217 c13 -120 25 -220 26 -222 2 -2 45
-10 96 -17 51 -8 130 -23 176 -35 46 -11 85 -19 87 -17 1 1 51 90 110 195
l107 193 36 -16 c20 -8 71 -29 112 -46 41 -17 77 -32 79 -34 2 -2 -24 -98 -58
-213 -34 -116 -61 -213 -61 -215 0 -3 35 -26 78 -51 42 -26 110 -72 150 -102
l73 -54 167 132 c92 72 172 135 178 140 6 5 44 -25 97 -79 l88 -88 -141 -177
-140 -177 60 -81 c34 -45 79 -113 101 -150 23 -38 44 -69 48 -69 4 0 101 27
215 60 115 33 210 59 211 58 2 -2 23 -52 48 -113 37 -88 43 -112 33 -120 -7
-5 -95 -55 -195 -110 -156 -86 -181 -103 -176 -120 7 -25 52 -258 60 -306 l5
-36 208 -22 c114 -13 213 -24 220 -27 9 -2 12 -37 12 -127 l0 -124 -162 -17
c-90 -10 -181 -21 -203 -25 l-40 -6 4 -45 c1 -25 4 -46 6 -48 9 -10 452 50
472 63 23 15 23 19 23 200 0 172 -1 186 -20 205 -11 11 -26 20 -32 20 -21 0
-393 43 -396 46 -2 1 -12 44 -22 96 -10 51 -21 100 -24 108 -4 11 40 40 174
113 109 59 187 108 197 123 16 25 15 30 -27 132 -75 186 -97 231 -122 242 -19
9 -62 -1 -225 -48 l-202 -58 -60 89 c-34 49 -61 93 -61 97 0 4 59 80 130 170
88 111 130 172 130 189 0 35 -246 281 -281 281 -16 0 -80 -44 -188 -130 -91
-71 -168 -130 -172 -130 -14 0 -184 122 -182 130 2 5 28 97 59 205 52 182 55
197 41 219 -15 22 -125 73 -294 139 -47 18 -55 18 -75 5 -13 -9 -68 -97 -123
-197 -65 -118 -104 -179 -113 -176 -7 2 -52 12 -100 21 -48 9 -92 18 -97 19
-6 1 -20 94 -33 206 -14 127 -29 212 -38 227 -14 21 -19 22 -197 22 -135 0
-188 -3 -201 -13z"/>
<path d="M2436 4278 c-10 -6 -53 -12 -96 -13 -43 -1 -86 -8 -98 -16 -33 -21
-26 -32 9 -14 17 9 35 15 41 13 6 -2 -19 -19 -56 -37 -36 -18 -70 -29 -76 -26
-5 3 -15 1 -22 -5 -7 -7 -44 -31 -83 -54 -38 -23 -69 -47 -68 -52 1 -5 -32
-27 -73 -48 -41 -21 -74 -42 -74 -48 0 -5 5 -6 10 -3 6 3 10 1 10 -4 0 -6 -8
-11 -18 -11 -24 0 -87 -47 -70 -52 7 -3 3 -7 -10 -10 -13 -4 -22 -2 -22 5 0 6
-9 1 -21 -11 -18 -20 -18 -24 -5 -37 8 -8 19 -15 25 -15 20 0 20 -18 0 -44
-24 -31 -45 -35 -29 -6 9 17 6 24 -13 43 -13 12 -22 28 -20 34 10 29 -63 -17
-90 -56 -32 -46 -29 -65 8 -51 14 5 25 6 25 2 0 -5 -26 -19 -57 -32 -73 -30
-135 -68 -128 -79 2 -5 -2 -14 -9 -20 -10 -8 -16 -9 -21 -1 -3 5 -1 10 4 10 6
0 11 4 11 10 0 5 -7 7 -16 3 -8 -3 -13 -11 -10 -18 5 -13 -77 -99 -86 -90 -6
6 -118 -122 -118 -135 0 -5 -10 -15 -22 -21 -23 -12 -23 -12 -4 10 23 26 2 30
-25 5 -13 -12 -16 -21 -9 -34 7 -13 3 -22 -16 -39 -14 -12 -32 -38 -40 -56 -8
-19 -23 -39 -34 -45 -11 -6 -18 -16 -14 -22 8 -13 -15 -28 -33 -21 -9 4 3 22
37 60 48 52 60 73 42 73 -9 0 -92 -57 -102 -70 -3 -3 -22 -19 -43 -35 -21 -15
-45 -41 -52 -56 -15 -28 -75 -234 -75 -253 1 -21 30 56 30 79 0 13 9 33 21 46
23 26 23 31 -8 -58 -10 -29 -11 -48 -5 -59 8 -15 15 -10 47 34 20 29 39 52 41
52 10 0 3 -18 -14 -36 -24 -26 -52 -67 -52 -76 0 -4 7 -5 15 -2 8 4 15 1 15
-5 0 -7 -7 -14 -15 -17 -8 -4 -15 -16 -15 -28 0 -11 -11 -39 -25 -61 -13 -22
-25 -46 -25 -53 0 -8 -9 -25 -20 -39 -18 -23 -20 -41 -20 -162 0 -75 5 -143
10 -151 8 -12 10 -11 10 6 0 11 6 28 13 38 12 16 15 17 20 4 3 -10 14 -14 30
-11 17 3 32 -2 48 -18 l22 -22 -6 30 c-3 18 -1 35 6 42 9 10 4 12 -24 10 -37
-3 -90 22 -77 36 4 4 27 9 52 10 41 1 46 -2 77 -41 36 -46 65 -58 56 -24 -3
11 -1 23 4 26 15 9 10 21 -10 27 -14 3 -18 11 -14 26 8 32 28 44 43 26 7 -8 9
-15 4 -15 -4 0 1 -7 12 -15 22 -17 71 -20 76 -4 4 12 138 -49 138 -63 0 -4
-17 -18 -38 -32 -20 -13 -43 -31 -51 -39 -7 -9 -28 -19 -47 -23 -19 -3 -36
-10 -39 -14 -3 -5 -14 -6 -24 -3 -27 7 -46 -29 -30 -58 15 -29 -1 -43 -48 -42
-21 1 -44 -3 -50 -9 -17 -14 -43 -3 -43 19 -1 31 -40 71 -40 41 0 -6 -11 -26
-26 -45 l-25 -33 26 -97 c160 -600 657 -1087 1260 -1233 175 -42 278 -52 470
-46 207 7 316 25 493 84 542 182 949 602 1115 1152 42 138 54 196 39 186 -6
-3 -13 0 -15 6 -3 7 -6 0 -8 -17 -5 -84 -19 -143 -58 -257 -52 -154 -84 -208
-146 -253 -31 -22 -59 -41 -64 -43 -4 -1 3 30 16 70 24 74 63 251 63 287 0 11
9 25 19 31 21 11 55 64 94 145 13 28 38 60 55 72 28 21 31 21 35 5 3 -9 5 -2
6 16 0 17 4 32 9 32 4 0 7 -19 5 -42 l-2 -43 9 45 c16 88 22 313 11 410 -6 52
-14 115 -17 140 -12 107 -80 322 -144 455 -57 119 -149 262 -236 365 -79 94
-203 218 -201 199 2 -8 50 -62 107 -119 131 -132 222 -258 304 -425 65 -133
133 -312 121 -323 -3 -3 -8 3 -11 15 -3 11 -16 25 -28 31 -14 6 -30 29 -41 58
-27 73 -98 212 -139 272 -33 50 -35 55 -21 75 8 12 15 26 15 32 -1 5 -8 -2
-16 -18 l-15 -27 -62 82 c-34 46 -109 130 -167 187 -58 57 -105 109 -105 115
0 6 -8 26 -18 45 -11 18 -21 45 -23 59 -5 23 -3 24 13 11 16 -13 17 -12 5 3
-15 19 -91 58 -112 58 -9 0 -6 -6 8 -16 12 -8 20 -19 17 -24 -3 -4 3 -14 12
-21 12 -10 14 -10 9 -1 -10 17 6 15 30 -4 16 -13 16 -15 2 -10 -22 7 -23 -3
-3 -31 13 -18 13 -24 0 -51 -9 -16 -24 -32 -35 -35 -12 -3 -20 -14 -20 -25 0
-11 -3 -27 -6 -36 -4 -11 -1 -16 10 -16 9 0 16 -4 16 -10 0 -5 5 -10 10 -10
15 0 12 21 -5 40 -14 15 -13 19 5 35 16 14 22 15 35 5 12 -10 15 -10 15 3 0
31 33 9 126 -84 81 -79 201 -220 228 -266 4 -8 -4 -23 -21 -38 -37 -33 -158
-115 -170 -115 -5 0 -35 37 -66 83 -50 74 -233 297 -243 297 -11 0 1 -16 54
-73 68 -74 130 -154 208 -268 31 -46 54 -77 51 -68 -4 11 7 23 35 39 22 12 69
44 104 71 l64 49 23 -37 c71 -114 163 -310 152 -322 -4 -3 -19 -6 -33 -7 -15
0 -26 -6 -24 -12 6 -30 -13 -2 -83 128 -48 88 -83 140 -92 140 -9 0 -44 -16
-79 -35 -48 -27 -68 -33 -81 -26 -21 11 -69 24 -98 25 -11 1 -21 9 -23 21 -6
36 -25 65 -44 65 -18 0 -25 -24 -9 -34 4 -3 11 -18 14 -33 7 -33 44 -53 76
-41 16 5 20 4 15 -4 -4 -7 -3 -8 5 -4 7 5 24 5 37 2 21 -6 24 -9 14 -21 -7 -8
-16 -15 -19 -15 -20 0 -256 -141 -259 -154 -2 -8 25 -68 60 -133 35 -65 63
-123 63 -130 0 -6 8 -19 17 -30 15 -17 98 -162 98 -173 0 -3 -15 -5 -34 -6
l-34 0 -108 195 c-59 108 -109 199 -111 203 -2 4 3 20 11 35 12 24 12 34 1 58
-17 41 -39 57 -114 86 -35 13 -66 30 -69 37 -7 20 16 89 33 95 8 4 24 -2 37
-12 18 -15 20 -22 11 -33 -7 -8 -8 -19 -3 -28 7 -11 11 -11 24 -1 20 17 21 50
1 57 -24 9 -18 31 15 56 17 12 30 30 30 40 0 10 4 18 10 18 22 0 41 73 36 146
-5 88 -14 106 -66 135 -22 13 -40 26 -40 31 0 4 -5 7 -12 5 -18 -3 -22 35 -4
45 24 14 19 23 -13 24 -21 1 -28 -3 -24 -12 6 -17 -8 -18 -41 -3 l-25 12 22
28 c23 33 37 37 37 12 0 -14 3 -13 23 5 27 26 43 28 51 7 3 -8 14 -15 24 -15
17 0 37 -19 62 -59 7 -12 11 -12 24 -2 9 8 16 19 16 25 0 15 -48 61 -73 69
-17 6 -17 22 -2 73 8 28 53 20 106 -18 30 -21 58 -38 64 -38 5 0 -18 19 -52
41 -54 35 -63 46 -65 73 -2 46 -3 49 -18 74 -16 25 -105 76 -119 68 -4 -3 -14
3 -23 13 -32 38 -321 126 -497 152 -68 9 -94 9 -135 -1 -37 -10 -51 -10 -54
-1 -5 14 -81 14 -106 -1z m1458 -1149 c41 -74 54 -108 50 -125 -5 -19 -2 -24
13 -24 13 0 34 -28 71 -97 29 -53 49 -99 45 -102 -15 -10 -36 -70 -30 -86 5
-11 -31 -35 -136 -92 -77 -43 -144 -79 -147 -81 -6 -3 -40 51 -40 65 0 4 10
13 22 18 25 12 38 38 14 29 -32 -12 -15 4 24 24 22 11 40 16 40 11 0 -5 5 -9
10 -9 6 0 10 7 10 16 0 8 4 13 8 10 5 -3 21 6 37 18 l29 23 13 -24 c7 -14 13
-34 13 -44 0 -11 4 -19 9 -19 6 0 6 12 0 32 -16 56 -11 66 46 103 30 19 55 37
55 40 0 7 -13 0 -53 -28 -16 -10 -30 -17 -33 -14 -3 3 -16 -5 -28 -17 -13 -11
-72 -45 -131 -75 -115 -58 -109 -58 -141 2 -21 38 -12 57 27 57 l31 0 -7 63
c-3 34 -9 70 -11 80 -3 9 -1 17 5 17 6 0 11 5 11 10 0 6 -6 10 -13 10 -27 0
-50 38 -44 70 5 25 3 30 -13 30 -10 0 -22 5 -25 10 -12 19 -25 10 -25 -18 0
-16 -7 -43 -16 -60 -8 -18 -13 -36 -9 -42 3 -5 2 -17 -3 -26 -7 -13 -19 2 -54
67 l-45 84 48 27 c26 15 55 25 63 22 10 -4 16 -1 16 8 0 14 117 84 126 75 3
-3 -4 -10 -15 -17 -23 -12 -29 -64 -9 -76 7 -5 9 0 6 14 -7 24 17 39 26 16 3
-8 13 -14 21 -14 12 0 15 6 9 22 -6 21 -5 21 10 9 15 -13 16 -12 6 15 -6 15
-16 34 -21 41 -8 9 0 17 28 32 21 11 41 20 45 21 4 0 32 -46 62 -101z m-2415
-58 c12 -8 8 -15 -17 -36 -41 -35 -40 -45 4 -45 l36 0 -25 -42 c-27 -45 -46
-50 -78 -22 -8 8 -21 14 -27 14 -25 0 -10 47 29 93 41 48 53 54 78 38z m1444
-83 c78 -39 160 -77 182 -83 34 -10 42 -18 55 -53 9 -28 20 -42 32 -42 10 0
43 -22 73 -50 55 -50 83 -63 119 -57 28 5 31 23 5 40 -12 9 -27 26 -33 39 -9
19 -21 24 -63 26 -35 2 -56 9 -68 22 -10 11 -24 20 -31 20 -20 0 -38 39 -22
45 7 3 39 14 71 24 l57 20 14 -22 c7 -12 36 -62 63 -112 88 -159 95 -176 57
-138 -10 10 -42 20 -78 25 -93 11 -112 14 -125 22 -11 7 -81 -13 -81 -24 0
-10 41 -31 50 -25 5 3 20 0 32 -7 13 -7 27 -11 32 -10 4 2 20 -5 35 -15 14 -9
31 -18 38 -19 6 -1 28 -14 49 -28 21 -14 53 -26 70 -26 75 0 34 -23 -176 -95
-45 -16 -78 -31 -73 -32 5 -2 76 21 158 52 82 30 151 55 155 55 3 0 13 -15 22
-33 l16 -34 -109 -82 -110 -82 -82 65 c-114 90 -601 476 -605 481 -3 2 7 24
22 49 14 24 25 55 24 67 -2 17 5 27 25 37 15 7 33 22 40 33 6 10 13 19 15 19
1 0 66 -32 145 -72z m122 22 c3 -6 -1 -7 -9 -4 -18 7 -21 14 -7 14 6 0 13 -4
16 -10z m130 -40 c3 -5 -3 -10 -15 -10 -12 0 -18 5 -15 10 3 6 10 10 15 10 5
0 12 -4 15 -10z m997 -9 c18 -22 35 -121 20 -121 -16 0 -34 57 -27 81 7 22 7
22 -9 6 -16 -15 -15 -21 3 -94 11 -42 18 -79 16 -81 -1 -2 -21 32 -44 74 -41
79 -42 99 -3 99 13 0 16 7 14 28 -4 32 7 35 30 8z m-83 -36 c0 -5 -6 -1 -14 9
-8 11 -15 24 -15 30 0 5 7 1 15 -10 8 -10 14 -23 14 -29z m-2500 -13 c7 -14 5
-27 -9 -50 -16 -26 -26 -32 -55 -32 -19 0 -35 3 -35 7 0 3 11 26 25 50 28 46
57 56 74 25z m-419 -87 c-19 -23 -8 -27 45 -15 40 9 51 8 63 -4 14 -13 12 -18
-16 -42 -16 -15 -54 -39 -84 -53 -29 -14 -58 -37 -64 -49 -18 -36 -30 -45 -54
-37 -20 6 -22 12 -18 63 3 38 11 59 23 68 14 10 21 11 26 3 10 -16 35 -5 50
22 10 19 9 21 -5 16 -12 -5 -11 1 7 28 13 20 26 30 31 25 6 -6 4 -15 -4 -25z
m1812 -315 c202 -161 342 -265 355 -265 12 0 81 44 157 99 142 104 153 119
121 162 -8 10 -15 22 -15 25 0 5 45 29 55 29 2 0 18 -25 35 -55 17 -30 36 -57
41 -61 8 -5 147 64 236 118 31 18 31 18 26 -1 -3 -11 -10 -18 -16 -15 -8 3
-11 -11 -9 -44 3 -43 -1 -54 -32 -95 -20 -26 -36 -51 -36 -55 0 -4 -6 -19 -14
-33 -11 -22 -11 -31 2 -60 9 -19 16 -39 17 -45 0 -7 11 -21 25 -32 l24 -20
-51 -25 c-70 -36 -254 -117 -264 -117 -5 0 -9 23 -9 51 0 53 -30 262 -37 256
-2 -2 4 -59 12 -126 9 -67 15 -138 13 -158 l-3 -36 -115 -43 c-63 -24 -186
-68 -273 -96 -135 -45 -159 -51 -167 -38 -8 13 -10 12 -10 -2 0 -12 -19 -23
-67 -37 -129 -38 -367 -101 -481 -127 -130 -29 -122 -32 -149 56 -9 30 -18 50
-20 44 -5 -15 90 -286 152 -431 l52 -121 -41 -11 c-45 -11 -300 -55 -383 -66
-37 -5 -53 -3 -53 4 0 7 7 14 15 17 26 10 17 42 -20 71 -43 35 -44 60 -5 115
35 48 36 52 11 75 -10 10 -30 37 -44 59 -15 25 -36 44 -51 48 -45 11 -28 22
52 34 134 21 303 54 299 59 -4 3 -289 -44 -370 -61 -10 -3 -31 7 -47 21 -26
22 -30 31 -30 78 0 30 5 57 11 61 6 4 8 20 5 40 -5 24 -1 45 15 76 13 26 24
69 27 109 l5 67 36 6 c47 7 72 36 99 112 29 80 28 115 -3 148 -18 20 -34 26
-65 26 -50 0 -83 -29 -101 -88 -8 -29 -31 -60 -76 -102 l-64 -62 -27 18 c-37
26 -90 45 -135 51 -21 3 -41 13 -47 22 -5 10 -26 25 -48 35 -21 10 -46 31 -56
47 -9 16 -21 29 -26 29 -10 0 -170 118 -170 125 0 3 10 0 21 -7 17 -10 23 -10
26 -1 5 14 70 -15 92 -41 7 -8 19 -12 27 -9 8 3 31 -12 54 -36 23 -23 46 -39
51 -35 6 3 18 -1 27 -10 10 -8 34 -22 55 -31 20 -8 37 -20 37 -25 0 -6 12 -24
27 -40 25 -28 29 -29 82 -24 73 8 95 23 116 78 16 43 16 59 0 114 -10 31 9 28
23 -4 l12 -25 26 20 c56 44 138 30 172 -29 16 -29 32 -39 32 -22 0 14 48 32
83 32 49 0 94 -33 108 -79 11 -38 13 -39 41 -29 66 23 134 -17 153 -92 8 -32
26 -50 109 -115 117 -92 142 -103 185 -81 37 19 51 44 51 87 0 40 -13 53 -253
239 -174 135 -209 170 -172 170 8 0 126 -88 262 -196 137 -108 258 -200 271
-205 78 -31 153 79 97 142 -11 11 -119 99 -240 194 -257 202 -288 227 -228
190 23 -15 46 -24 52 -21 6 4 122 -81 258 -189 136 -108 261 -203 276 -211 76
-40 160 61 110 132 -5 5 -52 45 -105 88 -54 43 -95 83 -91 89 3 6 1 7 -5 3
-17 -10 -472 353 -465 371 3 7 9 13 13 11 5 -2 158 -122 342 -268z m-853 244
c25 -13 38 -14 63 -5 56 20 41 4 -17 -18 -66 -25 -85 -26 -110 -7 -16 12 -17
16 -6 30 17 20 30 20 70 0z m221 -37 c0 -18 -192 -97 -235 -97 -46 0 -94 21
-123 53 -34 36 -10 43 26 7 45 -44 108 -42 227 9 104 45 105 45 105 28z m-519
-58 c15 -7 29 -7 52 0 29 10 33 9 60 -24 43 -53 100 -79 172 -79 49 1 80 9
170 48 67 30 113 45 121 40 88 -67 89 -68 86 -102 -4 -43 9 -56 302 -285 220
-173 252 -206 206 -214 -8 -2 -132 89 -275 202 -270 213 -286 222 -333 189
-57 -40 -46 -101 28 -158 28 -21 50 -39 50 -41 0 -1 -22 3 -49 9 -34 8 -56 20
-72 40 -41 53 -132 80 -192 57 -20 -8 -29 -6 -42 9 -27 30 -81 43 -145 37
l-57 -6 13 37 c7 20 13 47 14 58 0 12 7 41 15 65 19 54 11 63 -60 64 -41 0
-58 5 -68 19 -13 17 -15 15 -25 -27 -18 -68 -81 -104 -97 -54 -3 12 -9 17 -11
10 -10 -22 -96 14 -114 48 -22 40 27 58 68 26 8 -6 34 -12 60 -13 38 -1 50 3
71 26 32 34 28 32 52 19z m1099 -232 c320 -253 323 -256 309 -274 -6 -7 -16
-13 -21 -13 -5 0 -68 46 -139 102 -93 73 -126 104 -117 111 9 6 8 7 -4 3 -11
-3 -46 17 -100 60 -70 56 -82 69 -82 96 -1 25 -8 34 -39 51 -40 21 -58 17 -37
-8 7 -8 8 -15 3 -15 -14 0 -44 35 -37 43 4 4 2 12 -3 19 -5 7 -13 21 -16 31
-9 25 -15 29 283 -206z m-1682 107 c-4 -3 -18 1 -32 8 -25 13 -26 14 -9 36
l18 22 14 -30 c8 -16 12 -32 9 -36z m2952 -177 c0 -2 -11 -18 -25 -37 -27 -37
-35 -24 -9 15 13 21 34 34 34 22z m-2181 -131 c9 -10 6 -29 -11 -77 -18 -50
-28 -65 -46 -67 -32 -5 -36 17 -14 74 10 27 22 57 25 67 8 20 30 22 46 3z
m779 -265 c-6 -33 -40 -20 -127 49 -65 52 -91 79 -96 100 -4 16 -16 41 -27 56
-12 14 41 -23 116 -82 85 -67 136 -114 134 -123z m1172 174 c25 -30 -7 -237
-61 -402 -16 -49 -28 -67 -55 -84 -38 -23 -247 -120 -251 -116 -1 2 5 41 13
87 8 47 17 152 20 234 l5 149 141 63 c78 35 147 69 152 74 14 14 21 13 36 -5z
m-340 -212 c-1 -82 -15 -239 -31 -330 l-11 -65 -53 -24 c-59 -25 -407 -146
-410 -142 -2 2 -10 71 -19 153 -10 83 -23 181 -30 218 -10 50 -10 70 -2 72
169 55 415 140 461 158 94 39 95 38 95 -40z m-556 -258 c27 -196 36 -299 28
-307 -9 -9 -229 -70 -388 -108 -71 -17 -137 -33 -146 -36 -12 -4 -22 7 -38 43
-33 73 -128 315 -135 344 l-6 26 213 52 c117 28 265 67 328 85 63 19 118 31
121 27 4 -3 14 -60 23 -126z m920 28 c-41 -71 -102 -161 -147 -218 -56 -69
-139 -155 -151 -155 -5 0 2 12 16 28 37 38 132 191 158 255 18 43 33 59 83 94
34 23 64 42 65 42 2 1 -9 -20 -24 -46z m-162 -139 c-22 -44 -69 -119 -103
-168 -35 -49 -64 -93 -64 -97 0 -4 -7 -14 -15 -21 -12 -11 -12 -11 -1 5 19 25
11 22 -89 -28 -49 -25 -92 -45 -95 -45 -3 0 6 17 20 38 28 42 89 189 100 240
6 29 15 37 68 60 34 15 96 43 137 63 41 20 76 35 78 34 2 -2 -15 -38 -36 -81z
m-2670 14 c13 -19 18 -21 31 -10 22 19 51 1 67 -40 17 -42 47 -76 85 -95 61
-32 157 -127 180 -178 25 -56 40 -72 105 -110 l45 -26 -60 6 c-34 4 -77 17
-100 30 -57 33 -184 143 -240 209 -27 30 -51 53 -55 51 -8 -5 -80 77 -80 90 0
4 8 1 18 -6 15 -13 16 -12 3 4 -8 9 -16 15 -19 12 -7 -7 -32 15 -32 27 0 6 7
5 15 -2 17 -14 21 0 4 17 -13 13 -6 43 9 43 5 0 16 -10 24 -22z m2393 -144
c-40 -120 -101 -231 -133 -242 -156 -57 -286 -102 -295 -102 -9 0 -11 35 -9
133 l3 133 157 52 c86 29 189 65 227 81 39 15 71 27 73 25 2 -1 -9 -37 -23
-80z m-445 -196 c0 -62 -3 -123 -6 -136 -7 -25 -23 -30 -262 -92 l-144 -37
-23 31 c-33 45 -118 196 -113 201 2 3 101 29 219 59 118 30 234 61 259 69 73
24 70 29 70 -95z m489 6 c-33 -36 -154 -126 -214 -160 l-50 -28 60 67 c47 53
77 75 140 106 44 22 82 40 84 40 3 1 -6 -11 -20 -25z m-1028 -86 c13 -28 43
-81 67 -116 23 -36 41 -66 40 -68 -6 -5 -219 -44 -280 -50 -64 -6 -68 -5 -125
29 -79 48 -167 125 -174 152 -6 22 -3 23 105 40 61 9 161 27 221 40 61 13 113
23 116 24 3 1 16 -22 30 -51z m784 -56 c-74 -72 -87 -80 -174 -110 -52 -18
-96 -31 -97 -29 -2 2 4 26 13 55 l17 52 120 40 c67 23 135 47 151 55 55 25 50
15 -30 -63z m-1645 -13 c14 -10 57 -35 95 -55 39 -20 81 -44 95 -53 14 -9 50
-28 80 -41 53 -23 92 -46 60 -36 -8 2 -46 14 -85 27 -96 30 -215 83 -307 136
-43 25 -78 46 -78 47 0 2 26 1 58 -2 35 -2 66 -11 82 -23z m556 -145 l49 -29
-55 -7 c-107 -12 -149 -9 -220 19 -74 29 -83 43 -34 54 52 10 74 28 74 58 0
15 3 30 6 34 3 3 34 -18 69 -48 34 -29 85 -66 111 -81z m815 64 l-18 -53 -77
-22 c-43 -13 -104 -28 -137 -35 -58 -12 -59 -12 -96 18 -20 17 -38 35 -40 40
-2 6 40 21 94 33 54 12 134 33 178 46 120 35 117 35 96 -27z m-335 -98 l52
-49 -51 1 c-29 0 -88 -3 -133 -7 -69 -7 -91 -4 -158 15 -42 13 -79 26 -81 30
-3 4 35 13 83 19 48 7 114 18 147 26 86 19 83 20 141 -35z m360 41 c-6 -9 -46
-22 -46 -15 0 3 10 9 23 14 29 11 29 11 23 1z m-86 -30 c-14 -9 -169 -51 -186
-51 -36 0 139 55 186 58 13 1 13 0 0 -7z m-585 -55 l70 -25 -50 0 c-61 0 -181
15 -255 31 l-55 13 60 6 c94 10 154 3 230 -25z"/>
<path d="M3790 3099 c0 -4 14 -40 32 -80 17 -41 46 -117 64 -169 18 -52 33
-88 33 -79 1 9 -6 36 -14 59 -18 50 -19 64 -5 55 6 -3 10 -1 10 5 0 7 -6 10
-14 7 -9 -4 -23 20 -45 76 -31 79 -60 139 -61 126z"/>
<path d="M3850 3034 c0 -5 7 -18 15 -28 12 -16 15 -17 15 -4 0 8 -7 21 -15 28
-8 7 -15 9 -15 4z"/>
<path d="M3810 2977 c0 -8 -13 -20 -30 -26 -33 -11 -35 -24 -21 -96 7 -38 55
-104 67 -92 3 3 -2 19 -10 36 -21 41 -20 48 3 20 18 -22 20 -23 27 -6 4 13 0
23 -15 34 -18 12 -21 21 -16 46 l6 32 -20 -23 c-11 -13 -25 -21 -31 -17 -19
12 -10 30 25 53 36 23 43 36 25 47 -5 3 -10 0 -10 -8z"/>
<path d="M3920 2925 c-16 -19 -1 -19 24 0 16 12 17 15 4 15 -8 0 -21 -7 -28
-15z"/>
<path d="M4035 2760 c-3 -5 -1 -10 4 -10 6 0 11 5 11 10 0 6 -2 10 -4 10 -3 0
-8 -4 -11 -10z"/>
<path d="M3850 2660 c0 -5 7 -10 15 -10 8 0 15 5 15 10 0 6 -7 10 -15 10 -8 0
-15 -4 -15 -10z"/>
<path d="M3790 2650 c-8 -5 -12 -12 -9 -15 8 -8 39 5 39 16 0 11 -11 11 -30
-1z"/>
<path d="M3270 2610 c0 -5 5 -10 10 -10 6 0 10 5 10 10 0 6 -4 10 -10 10 -5 0
-10 -4 -10 -10z"/>
<path d="M3335 2570 c3 -5 8 -10 11 -10 2 0 4 5 4 10 0 6 -5 10 -11 10 -5 0
-7 -4 -4 -10z"/>
<path d="M4120 2879 c0 -5 5 -7 10 -4 6 3 10 8 10 11 0 2 -4 4 -10 4 -5 0 -10
-5 -10 -11z"/>
<path d="M3578 2365 c2 -14 6 -25 8 -25 2 0 4 11 4 25 0 14 -4 25 -9 25 -4 0
-6 -11 -3 -25z"/>
<path d="M2155 2238 c-29 -26 -95 -199 -95 -250 0 -72 86 -112 143 -68 23 19
67 120 95 221 24 89 -75 156 -143 97z m55 -160 c-39 -111 -53 -130 -76 -107
-14 15 -12 25 17 110 35 103 54 128 77 105 12 -12 10 -27 -18 -108z"/>
<path d="M2363 2150 c-31 -13 -47 -41 -87 -158 -33 -95 -35 -106 -22 -135 25
-61 80 -81 132 -49 26 17 37 37 67 126 21 58 37 119 37 135 0 59 -71 105 -127
81z m60 -90 c-1 -14 -16 -64 -33 -112 -25 -69 -36 -88 -51 -88 -32 0 -33 25
-3 107 15 43 31 88 36 101 12 34 54 27 51 -8z"/>
<path d="M2495 1998 c-3 -7 -16 -47 -30 -88 l-26 -75 27 -22 c15 -12 37 -23
50 -26 57 -11 122 54 108 108 -6 24 -99 115 -117 115 -4 0 -10 -6 -12 -12z
m65 -125 c0 -14 -27 -30 -36 -20 -3 2 -2 17 2 31 5 21 9 24 20 15 8 -6 14 -18
14 -26z"/>
<path d="M3026 1940 c8 -43 14 -51 14 -19 0 13 -5 31 -10 39 -7 11 -8 5 -4
-20z"/>
<path d="M3042 1870 c0 -14 2 -19 5 -12 2 6 2 18 0 25 -3 6 -5 1 -5 -13z"/>
<path d="M2338 1623 c7 -3 16 -2 19 1 4 3 -2 6 -13 5 -11 0 -14 -3 -6 -6z"/>
<path d="M2224 1530 c-1 -26 -11 -54 -27 -77 -28 -40 -27 -54 9 -78 17 -11 24
-25 24 -48 0 -25 8 -38 34 -59 90 -72 120 -3 66 149 -12 32 -22 67 -24 77 -2
18 -59 76 -74 76 -4 0 -8 -18 -8 -40z"/>
<path d="M1158 1523 c7 -3 16 -2 19 1 4 3 -2 6 -13 5 -11 0 -14 -3 -6 -6z"/>
<path d="M1203 1513 c9 -2 23 -2 30 0 6 3 -1 5 -18 5 -16 0 -22 -2 -12 -5z"/>
<path d="M1190 1443 c13 -18 25 -33 27 -33 8 0 -17 38 -33 51 -11 9 -9 2 6
-18z"/>
<path d="M2128 4230 c-25 -5 -63 -20 -84 -34 -37 -25 -34 -37 4 -17 9 6 48 17
85 27 104 26 102 42 -5 24z"/>
<path d="M3380 4055 c0 -7 61 -47 66 -42 3 2 -11 14 -31 25 -19 12 -35 20 -35
17z"/>
<path d="M3578 3919 c6 -9 10 -18 7 -21 -3 -3 3 -12 13 -21 16 -14 19 -15 19
-2 0 8 -12 25 -26 37 -14 13 -20 16 -13 7z"/>
<path d="M1420 3865 c-16 -19 -1 -19 24 0 16 12 17 15 4 15 -8 0 -21 -7 -28
-15z"/>
<path d="M1479 3819 c-112 -94 -172 -152 -189 -185 -8 -16 -23 -41 -33 -56
-10 -16 -16 -28 -13 -28 6 0 57 28 95 51 27 17 28 33 1 19 -11 -6 -20 -8 -20
-5 0 31 80 117 205 222 28 23 45 42 39 43 -6 0 -45 -28 -85 -61z"/>
<path d="M3444 3818 l-19 -23 23 19 c21 18 27 26 19 26 -2 0 -12 -10 -23 -22z"/>
<path d="M1365 3819 c-11 -17 1 -21 15 -4 8 9 8 15 2 15 -6 0 -14 -5 -17 -11z"/>
<path d="M1303 3777 c-34 -37 -39 -52 -10 -31 25 18 42 43 34 50 -2 2 -13 -6
-24 -19z"/>
<path d="M3495 3780 c-8 -13 4 -32 16 -25 12 8 12 35 0 35 -6 0 -13 -4 -16
-10z"/>
<path d="M1155 3634 c-43 -40 -44 -42 -9 -15 37 27 72 61 63 61 -2 0 -26 -21
-54 -46z"/>
<path d="M3420 3485 c0 -30 15 -55 32 -55 15 0 8 38 -12 61 l-19 24 -1 -30z"/>
<path d="M1200 3475 c-7 -8 -8 -15 -2 -15 5 0 15 7 22 15 7 8 8 15 2 15 -5 0
-15 -7 -22 -15z"/>
<path d="M3582 3228 c-8 -10 -4 -13 13 -14 16 -1 22 2 18 12 -6 17 -17 18 -31
2z"/>
<path d="M3490 3180 c-19 -11 -30 -19 -25 -19 6 0 26 8 45 19 19 11 31 19 25
19 -5 0 -26 -8 -45 -19z"/>
<path d="M3410 3145 c-14 -8 -20 -14 -15 -14 6 0 21 6 35 14 14 8 21 14 15 14
-5 0 -21 -6 -35 -14z"/>
<path d="M3376 2997 c3 -10 9 -15 12 -12 3 3 0 11 -7 18 -10 9 -11 8 -5 -6z"/>
<path d="M3400 2945 c0 -5 5 -17 10 -25 5 -8 10 -10 10 -5 0 6 -5 17 -10 25
-5 8 -10 11 -10 5z"/>
<path d="M786 2813 c-4 -26 -10 -63 -13 -80 -3 -21 -1 -33 6 -33 6 0 11 9 11
19 0 11 4 22 9 26 6 3 10 22 9 43 -1 20 1 43 3 51 2 7 -1 15 -7 18 -7 2 -14
-15 -18 -44z"/>
<path d="M3550 2670 c0 -5 5 -10 11 -10 5 0 7 5 4 10 -3 6 -8 10 -11 10 -2 0
-4 -4 -4 -10z"/>
<path d="M1050 2409 c0 -5 5 -7 10 -4 6 3 10 8 10 11 0 2 -4 4 -10 4 -5 0 -10
-5 -10 -11z"/>
<path d="M815 2370 c4 -19 11 -39 16 -44 15 -16 10 19 -7 50 l-15 29 6 -35z"/>
<path d="M892 2348 c-16 -16 -15 -25 3 -25 8 0 15 9 15 19 0 21 -2 22 -18 6z"/>
<path d="M504 1910 c-15 -15 -244 -80 -281 -80 -38 0 -37 3 -17 -45 13 -32 17
-35 27 -22 7 9 66 32 131 51 l120 35 -70 -72 c-94 -97 -134 -145 -134 -162 0
-11 13 -13 63 -10 34 3 102 7 151 9 l89 5 -109 -64 c-68 -40 -116 -62 -127
-59 -16 5 -15 1 5 -40 21 -45 38 -59 38 -33 0 16 238 161 262 160 22 -2 22 3
-1 46 l-19 35 -103 -3 c-57 -1 -114 -5 -126 -8 -34 -8 -28 8 23 57 25 25 63
66 85 92 40 46 40 47 25 82 -16 40 -18 40 -32 26z"/>
<path d="M4554 1885 c-4 -15 -1 -32 7 -42 12 -14 12 -16 -2 -11 -12 5 -19 -3
-27 -29 -9 -28 -8 -34 3 -30 16 7 199 -51 203 -64 6 -17 20 -9 25 14 2 12 8
31 12 41 7 16 5 18 -8 13 -17 -6 -132 28 -155 46 -9 7 -12 23 -9 43 4 23 1 34
-10 38 -26 10 -32 7 -39 -19z"/>
<path d="M4533 1718 c-64 -17 -101 -114 -69 -177 19 -36 70 -71 104 -71 66 0
136 67 148 141 5 27 1 38 -15 53 -21 19 -21 19 -21 -22 0 -48 -37 -97 -80
-107 -51 -11 -54 6 -15 90 19 42 35 81 35 85 0 12 -53 17 -87 8z m27 -54 c0
-3 -10 -28 -21 -55 -18 -41 -24 -47 -36 -37 -18 15 -10 68 14 86 17 12 43 16
43 6z"/>
<path d="M4286 1523 c-3 -10 -9 -24 -12 -30 -3 -8 1 -13 12 -13 21 0 255 -128
270 -148 9 -12 15 -8 32 22 26 44 27 47 7 40 -8 -3 -76 28 -153 70 -76 42
-141 76 -144 76 -3 0 -8 -8 -12 -17z"/>
<path d="M600 1430 c21 -19 30 -37 28 -51 -5 -35 -20 -32 -71 16 -55 51 -83
56 -115 22 -42 -45 -16 -137 38 -137 24 0 25 6 4 27 -8 9 -14 27 -12 42 4 36
35 38 73 4 28 -24 28 -27 11 -37 -49 -29 -66 -49 -66 -75 0 -31 16 -51 42 -51
14 0 17 5 12 24 -5 21 1 29 38 52 62 40 98 75 98 96 0 10 -9 37 -20 58 -18 35
-25 40 -56 40 l-36 0 32 -30z"/>
<path d="M4219 1412 c-7 -15 -15 -30 -17 -35 -2 -4 2 -5 10 -2 16 6 234 -125
261 -157 10 -11 19 -19 20 -17 36 50 46 82 24 73 -7 -2 -69 31 -137 74 -69 43
-130 81 -136 85 -6 3 -17 -5 -25 -21z"/>
<path d="M797 1357 c-8 -21 -222 -187 -241 -187 -21 0 -20 -5 6 -40 23 -32 38
-38 38 -17 0 10 189 165 240 197 13 8 11 13 -11 36 -21 20 -27 23 -32 11z"/>
<path d="M4209 1231 c-36 -36 -38 -40 -27 -69 12 -32 28 -34 28 -3 0 10 11 28
25 41 22 21 27 22 40 9 13 -12 11 -21 -11 -69 -29 -62 -26 -92 11 -116 50 -33
137 23 120 76 l-7 23 -22 -28 c-15 -19 -29 -26 -46 -23 -31 4 -35 24 -15 71
l16 38 37 -31 c42 -34 53 -36 88 -14 18 12 23 22 18 38 -9 29 -9 29 -32 15
-17 -11 -27 -7 -82 34 -34 26 -71 47 -82 47 -11 0 -38 -17 -59 -39z"/>
<path d="M792 1191 c-8 -5 -34 -6 -58 -3 -41 4 -44 3 -55 -24 -25 -67 -33
-132 -19 -158 7 -15 16 -26 20 -26 4 0 15 36 25 80 l18 80 64 0 c34 0 63 3 63
8 -1 7 -36 52 -42 52 -1 0 -9 -4 -16 -9z"/>
<path d="M921 1156 c-17 -20 -4 -56 18 -56 28 0 47 28 34 48 -14 23 -37 26
-52 8z"/>
<path d="M870 1107 c0 -18 -149 -149 -161 -142 -20 13 -7 -13 20 -39 27 -26
30 -26 36 -9 4 10 40 47 80 83 40 36 73 70 74 75 0 6 -11 18 -24 28 -19 14
-25 15 -25 4z"/>
<path d="M4073 1070 c-35 -21 -53 -48 -53 -79 0 -16 -6 -21 -24 -21 -35 0 -86
-46 -86 -78 0 -20 -3 -23 -12 -14 -9 9 -17 7 -35 -10 -28 -26 -29 -38 -4 -38
21 0 141 -125 141 -146 0 -20 5 -18 40 15 29 26 30 30 13 35 -24 8 -111 96
-113 116 -7 48 19 74 63 62 24 -6 117 -102 117 -121 0 -10 11 -5 30 14 33 31
38 45 16 45 -20 0 -116 106 -116 128 0 23 30 52 54 52 24 0 126 -99 126 -122
0 -18 3 -17 34 9 37 30 44 43 23 43 -7 0 -35 23 -62 51 -40 41 -97 79 -117 79
-2 0 -17 -9 -35 -20z"/>
<path d="M945 1021 c8 -13 -124 -161 -144 -161 -11 -1 -5 -10 19 -30 l34 -30
11 25 c11 26 102 125 115 125 17 0 60 -43 60 -60 0 -22 -88 -130 -106 -130
-22 0 -17 -14 16 -45 22 -21 30 -25 30 -13 0 9 24 45 54 80 70 81 74 105 30
157 -15 19 -35 31 -50 31 -15 0 -22 4 -18 14 3 7 -6 20 -20 30 -28 18 -40 21
-31 7z"/>
<path d="M3685 874 c-83 -53 -104 -125 -51 -170 30 -27 60 -29 137 -13 63 14
99 1 99 -34 0 -41 -67 -87 -128 -87 l-27 0 26 -26 c33 -33 64 -26 125 30 39
34 47 48 51 86 4 36 1 51 -17 73 -24 31 -62 35 -149 16 -57 -12 -91 -1 -91 30
0 28 56 71 91 71 29 0 29 0 13 25 -20 31 -30 31 -79 -1z"/>
<path d="M1150 807 c-38 -19 -57 -60 -44 -95 10 -25 9 -28 -10 -28 -15 1 -22
-6 -24 -24 -2 -20 6 -32 43 -58 49 -34 69 -69 53 -89 -25 -31 -108 0 -134 48
-14 26 -8 49 12 49 17 0 18 12 2 28 -20 20 -66 15 -78 -8 -15 -28 -5 -55 38
-102 68 -76 158 -100 200 -55 37 39 29 72 -30 129 -29 28 -44 48 -33 43 73
-29 90 -32 115 -23 28 9 55 52 45 69 -10 15 12 10 25 -6 9 -11 17 -12 31 -4
10 5 19 13 19 17 -1 12 -153 111 -180 117 -14 3 -36 -1 -50 -8z m90 -57 c26
-26 25 -52 -1 -76 -19 -17 -23 -17 -47 -3 -46 25 -39 99 9 99 11 0 28 -9 39
-20z"/>
<path d="M3408 701 c-28 -16 -37 -31 -18 -31 9 0 50 -70 50 -85 0 -3 -6 -5
-12 -4 -58 7 -123 -40 -134 -97 -13 -71 50 -154 117 -154 47 0 89 20 95 46 9
33 0 39 -28 20 -34 -24 -66 -19 -99 13 -48 48 -37 113 24 134 34 12 63 -13 98
-86 18 -40 34 -73 35 -75 1 -2 16 4 34 13 28 14 30 18 16 28 -9 7 -46 75 -82
152 -36 77 -66 140 -67 141 -1 0 -14 -6 -29 -15z"/>
<path d="M1558 638 c-19 -21 -34 -29 -48 -25 -26 7 -37 -11 -16 -26 14 -11 13
-18 -14 -75 -16 -35 -30 -76 -30 -91 0 -45 41 -72 84 -55 20 8 21 24 2 24 -7
0 -19 7 -26 15 -10 12 -7 27 15 80 16 36 33 65 39 65 6 0 21 -7 33 -15 20 -14
23 -14 33 4 14 27 14 27 -20 41 -25 10 -29 17 -24 34 4 11 10 26 15 32 8 10 2
24 -10 24 -3 -1 -18 -15 -33 -32z"/>
<path d="M1675 641 c6 -19 -82 -284 -97 -289 -17 -7 -7 -20 23 -31 42 -15 49
-14 43 4 -7 16 21 108 42 143 9 14 24 22 42 22 54 0 65 -38 36 -126 -9 -27
-23 -57 -32 -66 -15 -18 -17 -18 57 -43 9 -4 11 0 7 11 -4 9 6 51 20 93 19 52
25 85 20 104 -9 36 -61 69 -102 65 l-31 -4 18 55 c11 30 18 55 17 56 -2 1 -18
7 -36 13 -30 10 -33 10 -27 -7z"/>
<path d="M3148 598 c-29 -10 -36 -24 -18 -30 13 -4 100 -251 100 -283 0 -15 5
-23 13 -20 67 24 72 27 57 35 -8 4 -37 76 -65 159 -27 83 -52 150 -55 150 -3
0 -17 -5 -32 -11z"/>
<path d="M2270 493 c0 -5 4 -13 9 -18 5 -6 27 -73 49 -149 30 -101 47 -146 66
-165 16 -16 29 -22 34 -16 5 6 26 61 47 123 l39 113 28 -103 c21 -76 35 -109
55 -126 14 -13 29 -20 33 -15 6 7 120 327 120 338 0 1 -18 5 -40 7 -45 4 -44
4 -29 -20 9 -15 4 -41 -26 -132 l-38 -114 -33 120 c-19 65 -34 127 -34 137 0
13 -8 17 -36 17 -31 0 -35 -3 -29 -20 4 -12 -9 -66 -31 -133 l-38 -112 -13 45
c-8 25 -24 86 -37 135 l-24 90 -36 3 c-20 2 -36 -1 -36 -5z"/>
<path d="M3085 465 c-14 -13 -25 -19 -25 -14 0 7 -12 8 -32 4 -42 -9 -43 -11
-26 -29 19 -18 62 -180 54 -201 -4 -12 -1 -15 12 -11 9 3 29 8 45 12 29 7 35
19 13 27 -16 6 -49 132 -41 158 4 10 17 22 31 25 25 6 28 12 18 38 -9 22 -21
20 -49 -9z"/>
<path d="M1913 426 c-39 -33 -57 -76 -49 -118 16 -87 152 -152 206 -98 27 27
26 29 -19 23 -55 -8 -107 19 -122 64 -6 19 -8 37 -5 40 5 6 137 -21 174 -34 8
-4 12 7 12 36 0 63 -40 103 -111 109 -48 4 -59 1 -86 -22z m127 -36 c25 -25
26 -43 3 -36 -10 3 -37 10 -61 16 -36 9 -41 14 -32 26 18 20 67 17 90 -6z"/>
<path d="M2775 389 c-69 -61 -66 -154 7 -199 88 -54 208 8 208 108 0 75 -52
122 -134 122 -36 0 -52 -6 -81 -31z m122 -24 c12 -8 26 -30 33 -49 26 -81 -52
-138 -115 -83 -78 67 -1 190 82 132z"/>
</g>
</svg>
